{
    "asset" : {
        "generator" : "Khronos glTF Blender I/O v3.4.50",
        "version" : "2.0"
    },
    "scene" : 0,
    "scenes" : [
        {
            "name" : "Scene",
            "nodes" : [
                0,
                1,
                2,
                3,
                4
            ]
        }
    ],
    "nodes" : [
        {
            "mesh" : 0,
            "name" : "Cylinder"
        },
        {
            "mesh" : 1,
            "name" : "Cylinder.009",
            "rotation" : [
                0.7071068286895752,
                -0.7071068286895752,
                0,
                5.3385093679025886e-08
            ],
            "scale" : [
                0.3183410167694092,
                0.23249968886375427,
                0.3183410167694092
            ],
            "translation" : [
                0,
                0.6024528741836548,
                0.003507643938064575
            ]
        },
        {
            "mesh" : 2,
            "name" : "Cylinder.002",
            "rotation" : [
                0.7071068286895752,
                -0.7071068286895752,
                0,
                5.338509012631221e-08
            ],
            "scale" : [
                0.3171563148498535,
                0.2316344976425171,
                0.3171563148498535
            ],
            "translation" : [
                0,
                0.5923706293106079,
                -0.3124118447303772
            ]
        },
        {
            "mesh" : 3,
            "name" : "Torus",
            "rotation" : [
                0,
                -1,
                0,
                7.549790126404332e-08
            ],
            "scale" : [
                0.07612257450819016,
                0.09394170343875885,
                0.04918162152171135
            ],
            "translation" : [
                0,
                0.6806811094284058,
                0.48318177461624146
            ]
        },
        {
            "mesh" : 4,
            "name" : "Cone",
            "rotation" : [
                0,
                -0.7071068286895752,
                0.7071068286895752,
                5.338508302088485e-08
            ],
            "scale" : [
                0.3171563148498535,
                0.07825931906700134,
                0.1487131267786026
            ],
            "translation" : [
                0,
                0.6353703737258911,
                -1.007380485534668
            ]
        }
    ],
    "materials" : [
        {
            "doubleSided" : true,
            "name" : "Material.002",
            "pbrMetallicRoughness" : {
                "baseColorTexture" : {
                    "index" : 0
                },
                "metallicFactor" : 0,
                "roughnessFactor" : 0.5
            }
        },
        {
            "doubleSided" : true,
            "name" : "Material.001",
            "pbrMetallicRoughness" : {
                "baseColorTexture" : {
                    "index" : 1
                },
                "metallicFactor" : 0,
                "roughnessFactor" : 0.5
            }
        }
    ],
    "meshes" : [
        {
            "name" : "Cylinder.001",
            "primitives" : [
                {
                    "attributes" : {
                        "POSITION" : 0,
                        "TEXCOORD_0" : 1,
                        "NORMAL" : 2
                    },
                    "indices" : 3,
                    "material" : 0
                }
            ]
        },
        {
            "name" : "Cylinder.009",
            "primitives" : [
                {
                    "attributes" : {
                        "POSITION" : 4,
                        "TEXCOORD_0" : 5,
                        "NORMAL" : 6
                    },
                    "indices" : 7,
                    "material" : 0
                }
            ]
        },
        {
            "name" : "Cylinder.003",
            "primitives" : [
                {
                    "attributes" : {
                        "POSITION" : 8,
                        "TEXCOORD_0" : 9,
                        "NORMAL" : 10
                    },
                    "indices" : 11,
                    "material" : 0
                }
            ]
        },
        {
            "name" : "Torus",
            "primitives" : [
                {
                    "attributes" : {
                        "POSITION" : 12,
                        "TEXCOORD_0" : 13,
                        "NORMAL" : 14
                    },
                    "indices" : 15,
                    "material" : 1
                }
            ]
        },
        {
            "name" : "Cone",
            "primitives" : [
                {
                    "attributes" : {
                        "POSITION" : 16,
                        "TEXCOORD_0" : 17,
                        "NORMAL" : 18
                    },
                    "indices" : 19,
                    "material" : 0
                }
            ]
        }
    ],
    "textures" : [
        {
            "sampler" : 0,
            "source" : 0
        },
        {
            "sampler" : 0,
            "source" : 1
        }
    ],
    "images" : [
        {
            "mimeType" : "image/jpeg",
            "name" : "wood1.jpg",
            "uri" : "../../Assets/Blender/wood1.jpg"
        },
        {
            "mimeType" : "image/jpeg",
            "name" : "rope_texture2.jpg",
            "uri" : "../../Assets/Blender/rope_texture2.jpg"
        }
    ],
    "accessors" : [
        {
            "bufferView" : 0,
            "componentType" : 5126,
            "count" : 283,
            "max" : [
                0.9892821311950684,
                0.3330588638782501,
                0.9067433476448059
            ],
            "min" : [
                -0.9892821311950684,
                -0.0004924498498439789,
                -0.9067433476448059
            ],
            "type" : "VEC3"
        },
        {
            "bufferView" : 1,
            "componentType" : 5126,
            "count" : 283,
            "type" : "VEC2"
        },
        {
            "bufferView" : 2,
            "componentType" : 5126,
            "count" : 283,
            "type" : "VEC3"
        },
        {
            "bufferView" : 3,
            "componentType" : 5123,
            "count" : 456,
            "type" : "SCALAR"
        },
        {
            "bufferView" : 4,
            "componentType" : 5126,
            "count" : 528,
            "max" : [
                0.8612899780273438,
                0.7968817949295044,
                0.5820009708404541
            ],
            "min" : [
                -0.20870588719844818,
                -0.7968816757202148,
                -0.5820009708404541
            ],
            "type" : "VEC3"
        },
        {
            "bufferView" : 5,
            "componentType" : 5126,
            "count" : 528,
            "type" : "VEC2"
        },
        {
            "bufferView" : 6,
            "componentType" : 5126,
            "count" : 528,
            "type" : "VEC3"
        },
        {
            "bufferView" : 7,
            "componentType" : 5123,
            "count" : 1020,
            "type" : "SCALAR"
        },
        {
            "bufferView" : 8,
            "componentType" : 5126,
            "count" : 3480,
            "max" : [
                0.41411006450653076,
                3.1471493244171143,
                1.0608758926391602
            ],
            "min" : [
                -0.9124406576156616,
                -3.1471493244171143,
                -4.120055675506592
            ],
            "type" : "VEC3"
        },
        {
            "bufferView" : 9,
            "componentType" : 5126,
            "count" : 3480,
            "type" : "VEC2"
        },
        {
            "bufferView" : 10,
            "componentType" : 5126,
            "count" : 3480,
            "type" : "VEC3"
        },
        {
            "bufferView" : 11,
            "componentType" : 5123,
            "count" : 6816,
            "type" : "SCALAR"
        },
        {
            "bufferView" : 12,
            "componentType" : 5126,
            "count" : 11668,
            "max" : [
                9.34249496459961,
                0.24967913329601288,
                22.749319076538086
            ],
            "min" : [
                -9.384586334228516,
                -1.4067347049713135,
                -9.483726501464844
            ],
            "type" : "VEC3"
        },
        {
            "bufferView" : 13,
            "componentType" : 5126,
            "count" : 11668,
            "type" : "VEC2"
        },
        {
            "bufferView" : 14,
            "componentType" : 5126,
            "count" : 11668,
            "type" : "VEC3"
        },
        {
            "bufferView" : 15,
            "componentType" : 5123,
            "count" : 19098,
            "type" : "SCALAR"
        },
        {
            "bufferView" : 16,
            "componentType" : 5126,
            "count" : 840,
            "max" : [
                0.1099330335855484,
                0.7500001192092896,
                0.11000004410743713
            ],
            "min" : [
                -0.1099330335855484,
                -18.74660873413086,
                -0.11000004410743713
            ],
            "type" : "VEC3"
        },
        {
            "bufferView" : 17,
            "componentType" : 5126,
            "count" : 840,
            "type" : "VEC2"
        },
        {
            "bufferView" : 18,
            "componentType" : 5126,
            "count" : 840,
            "type" : "VEC3"
        },
        {
            "bufferView" : 19,
            "componentType" : 5123,
            "count" : 1482,
            "type" : "SCALAR"
        }
    ],
    "bufferViews" : [
        {
            "buffer" : 0,
            "byteLength" : 3396,
            "byteOffset" : 0,
            "target" : 34962
        },
        {
            "buffer" : 0,
            "byteLength" : 2264,
            "byteOffset" : 3396,
            "target" : 34962
        },
        {
            "buffer" : 0,
            "byteLength" : 3396,
            "byteOffset" : 5660,
            "target" : 34962
        },
        {
            "buffer" : 0,
            "byteLength" : 912,
            "byteOffset" : 9056,
            "target" : 34963
        },
        {
            "buffer" : 0,
            "byteLength" : 6336,
            "byteOffset" : 9968,
            "target" : 34962
        },
        {
            "buffer" : 0,
            "byteLength" : 4224,
            "byteOffset" : 16304,
            "target" : 34962
        },
        {
            "buffer" : 0,
            "byteLength" : 6336,
            "byteOffset" : 20528,
            "target" : 34962
        },
        {
            "buffer" : 0,
            "byteLength" : 2040,
            "byteOffset" : 26864,
            "target" : 34963
        },
        {
            "buffer" : 0,
            "byteLength" : 41760,
            "byteOffset" : 28904,
            "target" : 34962
        },
        {
            "buffer" : 0,
            "byteLength" : 27840,
            "byteOffset" : 70664,
            "target" : 34962
        },
        {
            "buffer" : 0,
            "byteLength" : 41760,
            "byteOffset" : 98504,
            "target" : 34962
        },
        {
            "buffer" : 0,
            "byteLength" : 13632,
            "byteOffset" : 140264,
            "target" : 34963
        },
        {
            "buffer" : 0,
            "byteLength" : 140016,
            "byteOffset" : 153896,
            "target" : 34962
        },
        {
            "buffer" : 0,
            "byteLength" : 93344,
            "byteOffset" : 293912,
            "target" : 34962
        },
        {
            "buffer" : 0,
            "byteLength" : 140016,
            "byteOffset" : 387256,
            "target" : 34962
        },
        {
            "buffer" : 0,
            "byteLength" : 38196,
            "byteOffset" : 527272,
            "target" : 34963
        },
        {
            "buffer" : 0,
            "byteLength" : 10080,
            "byteOffset" : 565468,
            "target" : 34962
        },
        {
            "buffer" : 0,
            "byteLength" : 6720,
            "byteOffset" : 575548,
            "target" : 34962
        },
        {
            "buffer" : 0,
            "byteLength" : 10080,
            "byteOffset" : 582268,
            "target" : 34962
        },
        {
            "buffer" : 0,
            "byteLength" : 2964,
            "byteOffset" : 592348,
            "target" : 34963
        }
    ],
    "samplers" : [
        {
            "magFilter" : 9729,
            "minFilter" : 9987
        }
    ],
    "buffers" : [
        {
            "byteLength" : 595312,
            "uri" : "Ballista-65f607d6ac42757638cbc2b06e9ffc66.bin"
        }
    ]
}
