{
    "asset" : {
        "generator" : "Khronos glTF Blender I/O v1.8.19",
        "version" : "2.0"
    },
    "scene" : 0,
    "scenes" : [
        {
            "name" : "Scene",
            "nodes" : [
                0
            ]
        }
    ],
    "nodes" : [
        {
            "mesh" : 0,
            "name" : "castle",
            "scale" : [
                0.6467188000679016,
                0.6467188000679016,
                0.6467188000679016
            ],
            "translation" : [
                0,
                0.01346886157989502,
                0
            ]
        }
    ],
    "materials" : [
        {
            "doubleSided" : true,
            "name" : "Material.001",
            "pbrMetallicRoughness" : {
                "baseColorTexture" : {
                    "index" : 0
                },
                "metallicFactor" : 0,
                "roughnessFactor" : 0.5
            }
        }
    ],
    "meshes" : [
        {
            "name" : "Cube.001",
            "primitives" : [
                {
                    "attributes" : {
                        "POSITION" : 0,
                        "NORMAL" : 1,
                        "TANGENT" : 2,
                        "TEXCOORD_0" : 3
                    },
                    "indices" : 4,
                    "material" : 0
                }
            ]
        }
    ],
    "textures" : [
        {
            "sampler" : 0,
            "source" : 0
        }
    ],
    "images" : [
        {
            "mimeType" : "image/png",
            "name" : "ImphenziaPalette01-256-Gradient.png",
            "uri" : "../../Assets/Blender/ImphenziaPalette01-256-Gradient.png"
        }
    ],
    "accessors" : [
        {
            "bufferView" : 0,
            "componentType" : 5126,
            "count" : 1306,
            "max" : [
                11.516345024108887,
                4.477950572967529,
                11.474837303161621
            ],
            "min" : [
                -11.52497673034668,
                -2.035733938217163,
                -11.544264793395996
            ],
            "type" : "VEC3"
        },
        {
            "bufferView" : 1,
            "componentType" : 5126,
            "count" : 1306,
            "type" : "VEC3"
        },
        {
            "bufferView" : 2,
            "componentType" : 5126,
            "count" : 1306,
            "type" : "VEC4"
        },
        {
            "bufferView" : 3,
            "componentType" : 5126,
            "count" : 1306,
            "type" : "VEC2"
        },
        {
            "bufferView" : 4,
            "componentType" : 5123,
            "count" : 2772,
            "type" : "SCALAR"
        }
    ],
    "bufferViews" : [
        {
            "buffer" : 0,
            "byteLength" : 15672,
            "byteOffset" : 0
        },
        {
            "buffer" : 0,
            "byteLength" : 15672,
            "byteOffset" : 15672
        },
        {
            "buffer" : 0,
            "byteLength" : 20896,
            "byteOffset" : 31344
        },
        {
            "buffer" : 0,
            "byteLength" : 10448,
            "byteOffset" : 52240
        },
        {
            "buffer" : 0,
            "byteLength" : 5544,
            "byteOffset" : 62688
        }
    ],
    "samplers" : [
        {
            "magFilter" : 9729,
            "minFilter" : 9987
        }
    ],
    "buffers" : [
        {
            "byteLength" : 68232,
            "uri" : "castle2-16e2f9e9d8246b52de0b965ad43321a1.bin"
        }
    ]
}
