{
    "asset" : {
        "generator" : "Khronos glTF Blender I/O v1.8.19",
        "version" : "2.0"
    },
    "scene" : 0,
    "scenes" : [
        {
            "name" : "Scene",
            "nodes" : [
                0,
                1,
                2
            ]
        }
    ],
    "nodes" : [
        {
            "mesh" : 0,
            "name" : "Cube",
            "scale" : [
                2.096283435821533,
                1.0481417179107666,
                1.0481417179107666
            ]
        },
        {
            "name" : "BezierCircle"
        },
        {
            "mesh" : 1,
            "name" : "Cone",
            "scale" : [
                1.015546441078186,
                0.47874921560287476,
                1.015546441078186
            ],
            "translation" : [
                0,
                1.782336711883545,
                0
            ]
        }
    ],
    "materials" : [
        {
            "doubleSided" : true,
            "name" : "Material.001",
            "pbrMetallicRoughness" : {
                "baseColorTexture" : {
                    "index" : 0
                },
                "metallicFactor" : 0,
                "roughnessFactor" : 0.5
            }
        },
        {
            "doubleSided" : true,
            "name" : "Material.002",
            "pbrMetallicRoughness" : {
                "baseColorTexture" : {
                    "index" : 1
                },
                "metallicFactor" : 0,
                "roughnessFactor" : 0.5
            }
        }
    ],
    "meshes" : [
        {
            "name" : "Cube.001",
            "primitives" : [
                {
                    "attributes" : {
                        "POSITION" : 0,
                        "NORMAL" : 1,
                        "TANGENT" : 2,
                        "TEXCOORD_0" : 3
                    },
                    "indices" : 4,
                    "material" : 0
                }
            ]
        },
        {
            "name" : "Cone",
            "primitives" : [
                {
                    "attributes" : {
                        "POSITION" : 5,
                        "NORMAL" : 6,
                        "TEXCOORD_0" : 7
                    },
                    "indices" : 8,
                    "material" : 1
                }
            ]
        }
    ],
    "textures" : [
        {
            "sampler" : 0,
            "source" : 0
        },
        {
            "sampler" : 0,
            "source" : 0
        }
    ],
    "images" : [
        {
            "mimeType" : "image/png",
            "name" : "ImphenziaPalette01-256-Gradient.png",
            "uri" : "../../Assets/Blender/ImphenziaPalette01-256-Gradient.png"
        }
    ],
    "accessors" : [
        {
            "bufferView" : 0,
            "componentType" : 5126,
            "count" : 3730,
            "max" : [
                0.6018021106719971,
                1.250000238418579,
                1.2040696144104004
            ],
            "min" : [
                -0.6019579172134399,
                -0.2500000596046448,
                -1.2037606239318848
            ],
            "type" : "VEC3"
        },
        {
            "bufferView" : 1,
            "componentType" : 5126,
            "count" : 3730,
            "type" : "VEC3"
        },
        {
            "bufferView" : 2,
            "componentType" : 5126,
            "count" : 3730,
            "type" : "VEC4"
        },
        {
            "bufferView" : 3,
            "componentType" : 5126,
            "count" : 3730,
            "type" : "VEC2"
        },
        {
            "bufferView" : 4,
            "componentType" : 5123,
            "count" : 5616,
            "type" : "SCALAR"
        },
        {
            "bufferView" : 5,
            "componentType" : 5126,
            "count" : 128,
            "max" : [
                1.4079980850219727,
                1.1072947978973389,
                1.4079980850219727
            ],
            "min" : [
                -1.4079980850219727,
                -1.0033535957336426,
                -1.4079980850219727
            ],
            "type" : "VEC3"
        },
        {
            "bufferView" : 6,
            "componentType" : 5126,
            "count" : 128,
            "type" : "VEC3"
        },
        {
            "bufferView" : 7,
            "componentType" : 5126,
            "count" : 128,
            "type" : "VEC2"
        },
        {
            "bufferView" : 8,
            "componentType" : 5123,
            "count" : 186,
            "type" : "SCALAR"
        }
    ],
    "bufferViews" : [
        {
            "buffer" : 0,
            "byteLength" : 44760,
            "byteOffset" : 0
        },
        {
            "buffer" : 0,
            "byteLength" : 44760,
            "byteOffset" : 44760
        },
        {
            "buffer" : 0,
            "byteLength" : 59680,
            "byteOffset" : 89520
        },
        {
            "buffer" : 0,
            "byteLength" : 29840,
            "byteOffset" : 149200
        },
        {
            "buffer" : 0,
            "byteLength" : 11232,
            "byteOffset" : 179040
        },
        {
            "buffer" : 0,
            "byteLength" : 1536,
            "byteOffset" : 190272
        },
        {
            "buffer" : 0,
            "byteLength" : 1536,
            "byteOffset" : 191808
        },
        {
            "buffer" : 0,
            "byteLength" : 1024,
            "byteOffset" : 193344
        },
        {
            "buffer" : 0,
            "byteLength" : 372,
            "byteOffset" : 194368
        }
    ],
    "samplers" : [
        {
            "magFilter" : 9729,
            "minFilter" : 9987
        }
    ],
    "buffers" : [
        {
            "byteLength" : 194740,
            "uri" : "Castle-4f20baa777cede5d77620426ec0ce575.bin"
        }
    ]
}
