{
    "asset" : {
        "generator" : "Khronos glTF Blender I/O v3.4.50",
        "version" : "2.0"
    },
    "scene" : 0,
    "scenes" : [
        {
            "extras" : {
                "btools_custom_object" : {}
            },
            "name" : "Scene",
            "nodes" : [
                0
            ]
        }
    ],
    "nodes" : [
        {
            "extras" : {
                "ant_landscape" : {},
                "facemap_materials" : [
                    {
                        "material" : {}
                    },
                    {
                        "material" : {}
                    },
                    {
                        "material" : {}
                    },
                    {
                        "material" : {}
                    },
                    {
                        "material" : {}
                    },
                    {
                        "material" : {}
                    },
                    {
                        "material" : {}
                    },
                    {
                        "material" : {}
                    },
                    {
                        "material" : {}
                    },
                    {
                        "material" : {}
                    },
                    {
                        "material" : {}
                    }
                ]
            },
            "mesh" : 0,
            "name" : "PortalTower"
        }
    ],
    "meshes" : [
        {
            "name" : "building_001_mesh",
            "primitives" : [
                {
                    "attributes" : {
                        "POSITION" : 0,
                        "TEXCOORD_0" : 1,
                        "NORMAL" : 2
                    },
                    "indices" : 3
                }
            ]
        }
    ],
    "accessors" : [
        {
            "bufferView" : 0,
            "componentType" : 5126,
            "count" : 553,
            "max" : [
                2.0999999046325684,
                5.5,
                2.0999999046325684
            ],
            "min" : [
                -2.0999999046325684,
                0,
                -2.0999999046325684
            ],
            "type" : "VEC3"
        },
        {
            "bufferView" : 1,
            "componentType" : 5126,
            "count" : 553,
            "type" : "VEC2"
        },
        {
            "bufferView" : 2,
            "componentType" : 5126,
            "count" : 553,
            "type" : "VEC3"
        },
        {
            "bufferView" : 3,
            "componentType" : 5123,
            "count" : 984,
            "type" : "SCALAR"
        }
    ],
    "bufferViews" : [
        {
            "buffer" : 0,
            "byteLength" : 6636,
            "byteOffset" : 0,
            "target" : 34962
        },
        {
            "buffer" : 0,
            "byteLength" : 4424,
            "byteOffset" : 6636,
            "target" : 34962
        },
        {
            "buffer" : 0,
            "byteLength" : 6636,
            "byteOffset" : 11060,
            "target" : 34962
        },
        {
            "buffer" : 0,
            "byteLength" : 1968,
            "byteOffset" : 17696,
            "target" : 34963
        }
    ],
    "buffers" : [
        {
            "byteLength" : 19664,
            "uri" : "PortalTower-61af930215c4fd713812d84ec5fd8320.bin"
        }
    ]
}
